<mxfile>
    <diagram id="FgEwCXMi1diq4bHf0E7v" name="Page-1">
        <mxGraphModel dx="841" dy="442" grid="1" gridSize="10" guides="1" tooltips="1" connect="1" arrows="1" fold="1" page="1" pageScale="1" pageWidth="850" pageHeight="1100" math="0" shadow="0">
            <root>
                <mxCell id="0"/>
                <mxCell id="1" parent="0"/>
                <mxCell id="2" value="VPC" style="points=[[0,0],[0.25,0],[0.5,0],[0.75,0],[1,0],[1,0.25],[1,0.5],[1,0.75],[1,1],[0.75,1],[0.5,1],[0.25,1],[0,1],[0,0.75],[0,0.5],[0,0.25]];outlineConnect=0;gradientColor=none;html=1;whiteSpace=wrap;fontSize=12;fontStyle=0;shape=mxgraph.aws4.group;grIcon=mxgraph.aws4.group_vpc;strokeColor=#248814;fillColor=none;verticalAlign=top;align=left;spacingLeft=30;dashed=0;fontColor=#000000;" parent="1" vertex="1">
                    <mxGeometry x="240" y="190" width="600" height="550" as="geometry"/>
                </mxCell>
                <mxCell id="3" value="Availability Zone" style="fillColor=none;strokeColor=#147EBA;dashed=1;verticalAlign=top;fontStyle=0;fontColor=#147EBA;" parent="1" vertex="1">
                    <mxGeometry x="437.75" y="221.5" width="374" height="490" as="geometry"/>
                </mxCell>
                <mxCell id="50" value="SQL操作" style="edgeStyle=orthogonalEdgeStyle;rounded=0;orthogonalLoop=1;jettySize=auto;html=1;labelBackgroundColor=#FFFFFF;fontSize=15;fontColor=#000000;strokeColor=#000000;" parent="1" source="4" target="5" edge="1">
                    <mxGeometry relative="1" as="geometry"/>
                </mxCell>
                <mxCell id="4" value="Public subnet" style="points=[[0,0],[0.25,0],[0.5,0],[0.75,0],[1,0],[1,0.25],[1,0.5],[1,0.75],[1,1],[0.75,1],[0.5,1],[0.25,1],[0,1],[0,0.75],[0,0.5],[0,0.25]];outlineConnect=0;gradientColor=none;html=1;whiteSpace=wrap;fontSize=14;fontStyle=0;shape=mxgraph.aws4.group;grIcon=mxgraph.aws4.group_security_group;grStroke=0;strokeColor=#248814;fillColor=#E9F3E6;verticalAlign=top;align=left;spacingLeft=30;fontColor=#248814;dashed=0;" parent="1" vertex="1">
                    <mxGeometry x="464.25" y="260" width="330" height="180" as="geometry"/>
                </mxCell>
                <mxCell id="5" value="Private subnet" style="points=[[0,0],[0.25,0],[0.5,0],[0.75,0],[1,0],[1,0.25],[1,0.5],[1,0.75],[1,1],[0.75,1],[0.5,1],[0.25,1],[0,1],[0,0.75],[0,0.5],[0,0.25]];outlineConnect=0;gradientColor=none;html=1;whiteSpace=wrap;fontSize=14;fontStyle=0;shape=mxgraph.aws4.group;grIcon=mxgraph.aws4.group_security_group;grStroke=0;strokeColor=#147EBA;fillColor=#E6F2F8;verticalAlign=top;align=left;spacingLeft=30;fontColor=#147EBA;dashed=0;" parent="1" vertex="1">
                    <mxGeometry x="464.25" y="511.5" width="330" height="170" as="geometry"/>
                </mxCell>
                <mxCell id="11" value="RDS&lt;br style=&quot;font-size: 15px;&quot;&gt;" style="outlineConnect=0;dashed=0;verticalLabelPosition=bottom;verticalAlign=top;align=center;html=1;shape=mxgraph.aws3.rds;fillColor=#2E73B8;gradientColor=none;fontColor=#000000;fontSize=15;" parent="1" vertex="1">
                    <mxGeometry x="593.25" y="550" width="72" height="81" as="geometry"/>
                </mxCell>
                <mxCell id="12" value="&lt;font color=&quot;#000000&quot; style=&quot;font-size: 15px;&quot;&gt;Route53&lt;/font&gt;" style="outlineConnect=0;dashed=0;verticalLabelPosition=bottom;verticalAlign=top;align=center;html=1;shape=mxgraph.aws3.route_53;fillColor=#F58536;gradientColor=none;fontSize=15;" parent="1" vertex="1">
                    <mxGeometry x="330" y="150" width="70.5" height="85.5" as="geometry"/>
                </mxCell>
                <mxCell id="13" value="&lt;font color=&quot;#000000&quot; style=&quot;font-size: 15px;&quot;&gt;S3&lt;br style=&quot;font-size: 15px;&quot;&gt;&lt;br style=&quot;font-size: 15px;&quot;&gt;&lt;/font&gt;" style="outlineConnect=0;dashed=0;verticalLabelPosition=bottom;verticalAlign=top;align=center;html=1;shape=mxgraph.aws3.s3;fillColor=#E05243;gradientColor=none;fontSize=15;" parent="1" vertex="1">
                    <mxGeometry x="300" y="430" width="76.5" height="93" as="geometry"/>
                </mxCell>
                <mxCell id="49" value="画像アップロード" style="edgeStyle=orthogonalEdgeStyle;rounded=0;orthogonalLoop=1;jettySize=auto;html=1;entryX=1;entryY=0.5;entryDx=0;entryDy=0;entryPerimeter=0;labelBackgroundColor=#ffffff;fontSize=15;fontColor=#1A1A1A;strokeColor=#000000;" parent="1" source="14" target="13" edge="1">
                    <mxGeometry x="0.5229" relative="1" as="geometry">
                        <Array as="points">
                            <mxPoint x="530" y="337"/>
                            <mxPoint x="530" y="477"/>
                        </Array>
                        <mxPoint x="1" as="offset"/>
                    </mxGeometry>
                </mxCell>
                <mxCell id="14" value="EC2" style="outlineConnect=0;dashed=0;verticalLabelPosition=bottom;verticalAlign=top;align=center;html=1;shape=mxgraph.aws3.ec2;fillColor=#F58534;gradientColor=none;fontColor=#000000;fontSize=15;" parent="1" vertex="1">
                    <mxGeometry x="586.5" y="290" width="76.5" height="93" as="geometry"/>
                </mxCell>
                <mxCell id="16" value="開発環境" style="aspect=fixed;html=1;points=[];align=center;image;fontSize=15;image=img/lib/mscae/Docker.svg;fontColor=#000000;" parent="1" vertex="1">
                    <mxGeometry x="69.04" y="610" width="109.76" height="90" as="geometry"/>
                </mxCell>
                <mxCell id="24" style="edgeStyle=orthogonalEdgeStyle;rounded=0;orthogonalLoop=1;jettySize=auto;html=1;fontColor=#000000;strokeColor=#000000;" parent="1" source="17" target="19" edge="1">
                    <mxGeometry relative="1" as="geometry"/>
                </mxCell>
                <mxCell id="17" value="" style="verticalLabelPosition=bottom;html=1;verticalAlign=top;align=center;strokeColor=none;fillColor=#00BEF2;shape=mxgraph.azure.github_code;pointerEvents=1;" parent="1" vertex="1">
                    <mxGeometry x="78.92000000000002" y="350" width="90" height="90" as="geometry"/>
                </mxCell>
                <mxCell id="23" value="git push" style="edgeStyle=orthogonalEdgeStyle;rounded=0;orthogonalLoop=1;jettySize=auto;html=1;entryX=0.5;entryY=1;entryDx=0;entryDy=0;entryPerimeter=0;fontColor=#000000;fontSize=15;strokeColor=#000000;" parent="1" source="18" target="17" edge="1">
                    <mxGeometry relative="1" as="geometry"/>
                </mxCell>
                <mxCell id="18" value="" style="aspect=fixed;pointerEvents=1;shadow=0;dashed=0;html=1;strokeColor=none;labelPosition=center;verticalLabelPosition=bottom;verticalAlign=top;align=center;fillColor=#00188D;shape=mxgraph.mscae.enterprise.code_file" parent="1" vertex="1">
                    <mxGeometry x="84.32000000000002" y="523" width="79.2" height="80.81" as="geometry"/>
                </mxCell>
                <mxCell id="25" value="デプロイ" style="edgeStyle=orthogonalEdgeStyle;rounded=0;orthogonalLoop=1;jettySize=auto;html=1;fontSize=15;fontColor=#000000;entryX=0;entryY=0.5;entryDx=0;entryDy=0;entryPerimeter=0;strokeColor=#000000;" parent="1" source="19" target="14" edge="1">
                    <mxGeometry x="-0.0972" relative="1" as="geometry">
                        <Array as="points">
                            <mxPoint x="219" y="242"/>
                            <mxPoint x="219" y="337"/>
                            <mxPoint x="540" y="337"/>
                        </Array>
                        <mxPoint as="offset"/>
                    </mxGeometry>
                </mxCell>
                <mxCell id="19" value="" style="shape=image;verticalLabelPosition=top;labelBackgroundColor=#ffffff;verticalAlign=bottom;aspect=fixed;imageAspect=0;image=data:image/svg+xml,PHN2ZyB4bWxucz0iaHR0cDovL3d3dy53My5vcmcvMjAwMC9zdmciIHdpZHRoPSIxMTMuNjk3NDc5MjQ4MDQ2ODgiIGhlaWdodD0iMzIuMDAxMTEwMDc2OTA0MyIgZmlsbD0iIzE2MTYxNiIgdmlld0JveD0iMy4xNTkwMTQ3MDE4NDMyNjE3IDEzLjk5MzI0MzIxNzQ2ODI2MiAxMTMuNjk3NDc5MjQ4MDQ2ODggMzIuMDAxMTEwMDc2OTA0MyI+PHBhdGggZD0iTTQ5LjkwMiAzNC43NmgtMS41MjRjLS4xMDIgMC0uMTk4LjA0OC0uMjYuMTMtLjg4NSAxLjMwOC0yLjM4IDIuMTY4LTQuMDggMi4xNjgtMi43MiAwLTQuOTIzLTIuMjA0LTQuOTIzLTQuOTIzczIuMjA0LTQuOTIzIDQuOTIzLTQuOTIzYTQuOTIgNC45MiAwIDAgMSA0LjA4IDIuMTY5Yy4wNjIuMDguMTU4LjEzLjI2LjEzaDEuNTI0YS4zMy4zMyAwIDAgMCAuMjkzLS40NzUgNi44OSA2Ljg5IDAgMCAwLTYuMTU2LTMuNzkyYy0zLjgwNiAwLTYuODkzIDMuMDg2LTYuODkzIDYuODkzczMuMDg2IDYuODkzIDYuODkzIDYuODkzYTYuODkgNi44OSAwIDAgMCA2LjE1NS0zLjc5MmMuMDI0LS4wNDYuMDM2LS4wOTYuMDM2LS4xNDdhLjMzLjMzIDAgMCAwLS4zMjktLjMyOHptNC41OTUtMTEuODE2YzAgMS43NS0yLjYyNiAxLjc1LTIuNjI2IDBzMi42MjYtMS43NSAyLjYyNiAwek01NC4xNyAzOC4zN3YtMTIuOEg1Mi4ydjEyLjhhLjMzLjMzIDAgMCAwIC4zMjguMzI4aDEuMzEzYS4zMy4zMyAwIDAgMCAuMzI4LS4zMjh6bTguNTQtMTMuMTJjLTEuOTg2LjA5NC0zLjU3MyAxLjA0My00LjYgMi40OTJ2LTEuODQ0YS4zMy4zMyAwIDAgMC0uMzI4LS4zMjhINTYuNDdhLjMzLjMzIDAgMCAwLS4zMjguMzI4VjM4LjM3YzAgLjE4LjE0Ni4zMjguMzI4LjMyOGgxLjMxM2EuMzMuMzMgMCAwIDAgLjMyOC0uMzI4di02LjIzNmMwLTIuNiAyLjAzLTQuNzQzIDQuNTk1LTQuOTEyYS4zMy4zMyAwIDAgMCAuMzI5LS4zMjl2LTEuMzE2YS4zMy4zMyAwIDAgMC0uMzIzLS4zMjh6bTEzLjA4IDkuNWgtMS41MjRjLS4xMDIgMC0uMTk4LjA0OC0uMjYuMTMtLjg4NSAxLjMwOC0yLjM4IDIuMTY4LTQuMDggMi4xNjgtMi43MiAwLTQuOTIzLTIuMjA0LTQuOTIzLTQuOTIzczIuMjA0LTQuOTIzIDQuOTIzLTQuOTIzYzEuNjk4IDAgMy4xOTQuODYgNC4wOCAyLjE3LjA2Mi4wOC4xNTguMTMuMjYuMTNINzUuOGEuMzMuMzMgMCAwIDAgLjMyOS0uMzI4LjMyLjMyIDAgMCAwLS4wMzYtLjE0NyA2Ljg5IDYuODkgMCAwIDAtNi4xNTUtMy43OTJjLTMuODA3IDAtNi44OTMgMy4wODYtNi44OTMgNi44OTNzMy4wODYgNi44OTMgNi44OTMgNi44OTNhNi44OSA2Ljg5IDAgMCAwIDYuMTU1LTMuNzkyYy4wMjQtLjA0Ni4wMzYtLjA5Ni4wMzYtLjE0N2EuMzMuMzMgMCAwIDAtLjMyOS0uMzI4em0zLjk0LTEzLjQ1N2gtMS4zMTNhLjMzLjMzIDAgMCAwLS4zMjguMzI4djE2Ljc0YS4zMy4zMyAwIDAgMCAuMzI4LjMyOGgxLjMxM2EuMzMuMzMgMCAwIDAgLjMyOC0uMzI4VjIxLjYzYS4zMy4zMyAwIDAgMC0uMzI4LS4zMjh6bTkuMiAzLjk0Yy0zLjgwNyAwLTYuODkzIDMuMDg2LTYuODkzIDYuODkzczMuMDg2IDYuODkzIDYuODkzIDYuODkzYTYuODkgNi44OSAwIDAgMCA2LjE1NS0zLjc5MmMuMTEzLS4yMTgtLjA0Ny0uNDc4LS4yOTItLjQ3NUg5My4yNmMtLjEwNSAwLS4yMDMuMDUtLjI2NS4xMzUtLjg4NSAxLjMwNC0yLjM4IDIuMTYyLTQuMDc1IDIuMTYyLTIuNDk2IDAtNC41NTgtMS44NTgtNC44OC00LjI2N2gxMS40MzRhLjMzLjMzIDAgMCAwIC4zMjctLjMxMmwuMDEtLjM0NWMwLTMuODA3LTMuMDg2LTYuODkzLTYuODkyLTYuODkzem0tNC43NDUgNS41OGMuNTc1LTIuMDggMi40OC0zLjYgNC43NDUtMy42czQuMTcgMS41MyA0Ljc0NSAzLjZ6bTMwLjcwMi05Ljg0N2MtMi42MjYgMC0yLjYyNiAzLjk0IDAgMy45NHMyLjYyNi0zLjk0IDAtMy45NHptMS42NCA0LjU5NXYxMi44YS4zMy4zMyAwIDAgMS0uMzI4LjMyOGgtMi42MjZhLjMzLjMzIDAgMCAxLS4zMjgtLjMyOHYtMTIuOHpNMTA0LjY3IDM5LjAyNmMzLjIxOCAwIDUuOTE3LTIuMjA1IDYuNjc4LTUuMTg1YS4zLjMgMCAwIDAgLjAwOC0uMDY3LjMzLjMzIDAgMCAwLS4zMjgtLjMyOGgtMi43NzhhLjMzLjMzIDAgMCAwLS4yOTguMTkyYy0uNTcyIDEuMjQyLTEuODI1IDIuMTA1LTMuMjgyIDIuMTA1YTMuNjEgMy42MSAwIDEgMSAzLjI4MS01LjExNC4zMy4zMyAwIDAgMCAuMjk4LjE5MWgyLjc3OGEuMzMuMzMgMCAwIDAgLjMyOC0uMzI4LjMyLjMyIDAgMCAwLS4wMDgtLjA2NmMtLjc2LTIuOTgtMy40Ni01LjE4Ni02LjY3OC01LjE4Ni0zLjgwNiAwLTYuODkzIDMuMDg2LTYuODkzIDYuODkzczMuMDg3IDYuODkzIDYuODkzIDYuODkzeiIvPjxnIHRyYW5zZm9ybT0ibWF0cml4KDEuMzk1NzIyIDAgMCAxLjM5NTcyMiAzOC42MDYxNjMgNTkuNzk2NjU1KSI+PGNpcmNsZSBjeD0iLTE0LjI3NSIgY3k9Ii0yMS4zNDkiIHI9IjIuNzMiLz48cGF0aCBkPSJNLTE0LjI3NS0zMi44MTNjLTUuMzQyIDAtOS44MyAzLjY1NC0xMS4xMDMgOC41OThhLjU2LjU2IDAgMCAwLS4wMTkuMTM2YzAgLjMuMjQ0LjU0Ni41NDYuNTQ2aDQuNjIzYS41NC41NCAwIDAgMCAuNDk1LS4zMnMuMDA3LS4wMTMuMDEtLjAyYy45NTMtMi4wNTYgMy4wMzQtMy40ODMgNS40NS0zLjQ4MyAzLjMxNyAwIDYuMDA2IDIuNjg4IDYuMDA2IDYuMDA1cy0yLjY4OCA2LjAwNS02LjAwNSA2LjAwNWMtMi40MTUgMC00LjQ5Ni0xLjQyNy01LjQ1LTMuNDgzLS4wMDMtLjAwNy0uMDEtLjAyLS4wMS0uMDItLjA4OC0uMTk0LS4yODItLjMyLS40OTUtLjMyaC00LjYyM2MtLjMwMiAwLS41NDYuMjQ0LS41NDYuNTQ2YS41NC41NCAwIDAgMCAuMDE5LjEzNmMxLjI3MyA0Ljk0NCA1Ljc2MiA4LjU5OCAxMS4xMDMgOC41OThDLTcuOTQyLTkuODktMi44LTE1LjAyMi0yLjgtMjEuMzUzcy01LjEzMy0xMS40NjQtMTEuNDY0LTExLjQ2NHoiLz48L2c+PC9zdmc+;fontColor=#1A1A1A;spacingLeft=0;align=center;horizontal=1;labelPosition=center;fontStyle=4" parent="1" vertex="1">
                    <mxGeometry x="50" y="221.5" width="147.84" height="41.5" as="geometry"/>
                </mxCell>
                <mxCell id="30" style="edgeStyle=orthogonalEdgeStyle;rounded=0;orthogonalLoop=1;jettySize=auto;html=1;exitX=0.5;exitY=1;exitDx=0;exitDy=0;exitPerimeter=0;fontSize=12;fontColor=#1A1A1A;strokeColor=#000000;" parent="1" source="20" target="12" edge="1">
                    <mxGeometry relative="1" as="geometry"/>
                </mxCell>
                <mxCell id="20" value="" style="outlineConnect=0;dashed=0;verticalLabelPosition=bottom;verticalAlign=top;align=center;html=1;shape=mxgraph.aws3.internet_2;fillColor=#D2D3D3;gradientColor=none;" parent="1" vertex="1">
                    <mxGeometry x="315.25" y="40" width="100" height="70" as="geometry"/>
                </mxCell>
            </root>
        </mxGraphModel>
    </diagram>
</mxfile>